<?xml version="1.0" encoding="utf-8"?>
<!-- Generator: Adobe Illustrator 22.0.1, SVG Export Plug-In . SVG Version: 6.00 Build 0)  -->
<svg version="1.1" id="Capa_2" xmlns="http://www.w3.org/2000/svg" xmlns:xlink="http://www.w3.org/1999/xlink" x="0px" y="0px"
	 viewBox="0 0 114.6 114.6" style="enable-background:new 0 0 114.6 114.6;" xml:space="preserve">
<style type="text/css">
	.st0{fill:#FF5722;}
	.st1{fill:#464740;}
	.st2{fill:#FDFDFD;}
	.st3{fill:#FFFFFF;}
	.st4{fill:#4F4D49;}
	.st5{fill:#8CB7B7;}
	.st6{opacity:0.63;fill:#FFFFFF;}
	.st7{fill:#EEF2F2;}
	.st8{fill:#4F4C48;}
	.st9{fill:#5A5A52;}
	.st10{fill:#282828;}
	.st11{fill:#454540;}
	.st12{fill:#4F4C48;stroke:#676461;stroke-width:1.3148;stroke-miterlimit:10;}
	.st13{fill:#454544;}
	.st14{fill:none;stroke:#5A5A52;stroke-width:5;stroke-miterlimit:10;}
	.st15{fill:none;stroke:#5A5A52;stroke-width:2;stroke-miterlimit:10;}
	.st16{fill:#353738;}
	.st17{clip-path:url(#SVGID_2_);fill:#D4D5D5;}
	.st18{clip-path:url(#SVGID_4_);fill:none;stroke:#222628;stroke-width:0.3035;stroke-miterlimit:10;}
	.st19{fill:#222628;}
	.st20{fill:none;stroke:#4F4D49;stroke-width:3.4505;stroke-linecap:round;stroke-linejoin:round;stroke-miterlimit:10;}
	.st21{fill:none;stroke:#4F4C48;stroke-width:3.4505;stroke-linecap:round;stroke-linejoin:round;stroke-miterlimit:10;}
</style>
<g>
	<circle class="st0" cx="57.3" cy="57.3" r="54.3"/>
	<g>
		<g>
			<path class="st8" d="M61.9,43.8H54v0c0-2.1,1.7-3.8,3.8-3.8h0.2C60.2,40,61.9,41.7,61.9,43.8L61.9,43.8z"/>
			<circle class="st9" cx="57.9" cy="55.4" r="12.6"/>
			<circle class="st10" cx="57.9" cy="55.4" r="10.4"/>
			<polygon class="st11" points="59.5,56.5 32.2,61.7 30.2,51.2 57.5,46 			"/>
			<polygon class="st11" points="54.5,56.5 82.7,61.7 84.7,51.2 57.5,46 			"/>
			<g>
				<circle class="st12" cx="31.5" cy="59.4" r="19.7"/>
				<circle class="st3" cx="31.5" cy="59.4" r="15.2"/>
			</g>
			<g>
				<circle class="st8" cx="84" cy="59.4" r="19.7"/>
				<circle class="st3" cx="84" cy="59.4" r="15.2"/>
			</g>
			<g>
				<circle class="st12" cx="84" cy="59.4" r="19.7"/>
				<circle class="st3" cx="84" cy="59.4" r="15.2"/>
			</g>
			<rect x="47.7" y="55" class="st11" width="19" height="8"/>
		</g>
	</g>
</g>
</svg>
