<?xml version="1.0" encoding="utf-8"?>
<!-- Generator: Adobe Illustrator 22.0.1, SVG Export Plug-In . SVG Version: 6.00 Build 0)  -->
<svg version="1.1" id="Capa_2" xmlns="http://www.w3.org/2000/svg" xmlns:xlink="http://www.w3.org/1999/xlink" x="0px" y="0px"
	 viewBox="0 0 114.6 114.6" style="enable-background:new 0 0 114.6 114.6;" xml:space="preserve">
<style type="text/css">
	.st0{fill:#FF5722;}
	.st1{fill:#464740;}
	.st2{fill:#FDFDFD;}
	.st3{fill:#FFFFFF;}
	.st4{fill:#4F4D49;}
	.st5{fill:#8CB7B7;}
	.st6{opacity:0.63;fill:#FFFFFF;}
	.st7{fill:#EEF2F2;}
	.st8{fill:#4F4C48;}
	.st9{fill:#5A5A52;}
	.st10{fill:#282828;}
	.st11{fill:#454540;}
	.st12{fill:#4F4C48;stroke:#676461;stroke-width:1.3148;stroke-miterlimit:10;}
	.st13{fill:#454544;}
	.st14{fill:none;stroke:#5A5A52;stroke-width:5;stroke-miterlimit:10;}
	.st15{fill:none;stroke:#5A5A52;stroke-width:2;stroke-miterlimit:10;}
	.st16{fill:#353738;}
	.st17{clip-path:url(#SVGID_2_);fill:#D4D5D5;}
	.st18{clip-path:url(#SVGID_4_);fill:none;stroke:#222628;stroke-width:0.3035;stroke-miterlimit:10;}
	.st19{fill:#222628;}
	.st20{fill:none;stroke:#4F4D49;stroke-width:3.4505;stroke-linecap:round;stroke-linejoin:round;stroke-miterlimit:10;}
	.st21{fill:none;stroke:#4F4C48;stroke-width:3.4505;stroke-linecap:round;stroke-linejoin:round;stroke-miterlimit:10;}
</style>
<g>
	<circle class="st0" cx="57.3" cy="57.3" r="54.3"/>
	<g>
		<polygon class="st1" points="34,84.1 33.9,50.4 46.2,40.2 46.4,84.1 		"/>
		<path class="st1" d="M49,38.3l0-9.1l12.5,0c5.8,0,10.3,1.5,13.6,4.5c3.3,3,4.9,7,5,12c0,4.1-0.9,7.5-2.6,10.1
			c-1.7,2.6-4.5,4.6-8.2,6.1L81.7,84l-12,0.1L59,63.9l-9.9,0.1l0-9.1l11.3-0.1c2.7,0,4.8-0.7,6.5-2.2c1.6-1.5,2.5-3.5,2.5-6.1
			c0-2.6-0.9-4.6-2.6-6.1c-1.7-1.4-4.4-2.1-7.9-2.1L49,38.3l0-9.1"/>
		<polygon class="st2" points="46.2,29.2 46.2,36 33.9,46.2 33.8,29.2 		"/>
	</g>
</g>
</svg>
