<?xml version="1.0" encoding="utf-8"?>
<!-- Generator: Adobe Illustrator 22.0.1, SVG Export Plug-In . SVG Version: 6.00 Build 0)  -->
<svg version="1.1" id="Capa_2" xmlns="http://www.w3.org/2000/svg" xmlns:xlink="http://www.w3.org/1999/xlink" x="0px" y="0px"
	 viewBox="0 0 114.6 114.6" style="enable-background:new 0 0 114.6 114.6;" xml:space="preserve">
<style type="text/css">
	.st0{fill:#FF5722;}
	.st1{fill:#464740;}
	.st2{fill:#FDFDFD;}
	.st3{fill:#FFFFFF;}
	.st4{fill:#4F4D49;}
	.st5{fill:#8CB7B7;}
	.st6{opacity:0.63;fill:#FFFFFF;}
	.st7{fill:#EEF2F2;}
	.st8{fill:#454540;}
	.st9{fill:#4F4C48;stroke:#676461;stroke-width:1.3148;stroke-miterlimit:10;}
	.st10{fill:#4F4C48;}
	.st11{fill:#5A5A52;}
	.st12{fill:#454544;}
	.st13{fill:none;stroke:#5A5A52;stroke-width:5;stroke-miterlimit:10;}
	.st14{fill:none;stroke:#5A5A52;stroke-width:2;stroke-miterlimit:10;}
	.st15{fill:#353738;}
	.st16{clip-path:url(#SVGID_2_);fill:#D4D5D5;}
	.st17{clip-path:url(#SVGID_4_);fill:none;stroke:#222628;stroke-width:0.3035;stroke-miterlimit:10;}
	.st18{fill:#222628;}
	.st19{fill:none;stroke:#4F4D49;stroke-width:3.4505;stroke-linecap:round;stroke-linejoin:round;stroke-miterlimit:10;}
	.st20{fill:none;stroke:#4F4C48;stroke-width:3.4505;stroke-linecap:round;stroke-linejoin:round;stroke-miterlimit:10;}
	.st21{fill:#504F4B;}
	.st22{fill:none;stroke:#504F4B;stroke-width:8;stroke-linecap:round;stroke-linejoin:round;stroke-miterlimit:10;}
	.st23{clip-path:url(#SVGID_6_);fill:#EEF2F2;}
	.st24{opacity:0.28;clip-path:url(#SVGID_8_);fill:#FFFFFF;}
	.st25{clip-path:url(#SVGID_10_);fill:#D4D5D5;}
	.st26{clip-path:url(#SVGID_12_);fill:none;stroke:#222628;stroke-width:0.3673;stroke-miterlimit:10;}
	.st27{fill:#282828;}
</style>
<circle class="st0" cx="57.3" cy="57.3" r="54.3"/>
<g>
	<g>
		<defs>
			
				<rect id="SVGID_5_" x="60.7" y="49.7" transform="matrix(1 -1.280270e-03 1.280270e-03 1 -7.951222e-02 9.863317e-02)" width="32.7" height="24.9"/>
		</defs>
		<clipPath id="SVGID_2_">
			<use xlink:href="#SVGID_5_"  style="overflow:visible;"/>
		</clipPath>
		<path style="clip-path:url(#SVGID_2_);fill:#EEF2F2;" d="M91.5,51.6l-29-0.1l0,11.5c0,2.9,2.1,5.4,5,5.8l17.2,2.7
			c3.6,0.6,6.9-2.2,6.9-5.9L91.5,51.6z"/>
	</g>
	<g>
		<defs>
			
				<rect id="SVGID_7_" x="65.7" y="51.1" transform="matrix(1 -1.338103e-03 1.338103e-03 1 -7.850247e-02 0.1065)" width="27.6" height="15.2"/>
		</defs>
		<clipPath id="SVGID_4_">
			<use xlink:href="#SVGID_7_"  style="overflow:visible;"/>
		</clipPath>
		<polyline style="opacity:0.28;clip-path:url(#SVGID_4_);fill:#FFFFFF;" points="91.4,66.3 91.3,51.1 63.7,51.1 		"/>
	</g>
	<path class="st1" d="M48.8,52l0,4.4l3.4-1.9l0-2.5c0-1.9-1.5-3.4-3.4-3.4l-23.6,0c-1.9,0-3.4,1.5-3.4,3.4l0,9.3l3.4,0l0-9.3
		L48.8,52"/>
	<path class="st1" d="M90.8,51.9c0-1.9-1.5-3.4-3.4-3.4l-23.6,0c-1.9,0-3.4,1.5-3.4,3.4l0,4.7l3.4,0l0-4.7l23.6,0"/>
	<polygon class="st1" points="12.5,48.6 25.2,48.6 25.2,56.6 12.5,52.8 	"/>
	<polygon class="st1" points="100,48.5 90.9,48.5 90.9,56.6 100,52.7 	"/>
	<path class="st1" d="M64,56.6l-3.4,0c0-1.5-2-2.7-4.3-2.7c-2.3,0-4.3,1.3-4.3,2.7l-3.4,0c0-3.4,3.4-6.1,7.7-6.1
		C60.6,50.5,64,53.2,64,56.6"/>
	<g>
		
			<rect x="77.8" y="47.7" transform="matrix(1 -1.275978e-03 1.275978e-03 1 -6.356113e-02 0.1097)" class="st1" width="16.3" height="4.3"/>
		<path class="st15" d="M87.1,49.8c0-2.7,2.2-4.8,4.8-4.8c2.7,0,4.8,2.2,4.8,4.8c0,2.7-2.2,4.8-4.8,4.8
			C89.2,54.6,87.1,52.5,87.1,49.8"/>
		<g>
			<defs>
				
					<rect id="SVGID_9_" x="89.8" y="47.7" transform="matrix(1 -1.885768e-03 1.885768e-03 1 -9.376708e-02 0.1734)" width="4.3" height="4.3"/>
			</defs>
			<clipPath id="SVGID_6_">
				<use xlink:href="#SVGID_9_"  style="overflow:visible;"/>
			</clipPath>
			<path style="clip-path:url(#SVGID_6_);fill:#D4D5D5;" d="M89.8,49.8c0-1.2,1-2.1,2.1-2.1c1.2,0,2.1,1,2.1,2.1
				c0,1.2-1,2.1-2.1,2.1C90.7,52,89.8,51,89.8,49.8"/>
		</g>
		<g>
			<defs>
				
					<rect id="SVGID_11_" x="89.6" y="47.5" transform="matrix(1 -1.016960e-03 1.016960e-03 1 -5.060726e-02 9.349417e-02)" width="4.6" height="4.6"/>
			</defs>
			<clipPath id="SVGID_8_">
				<use xlink:href="#SVGID_11_"  style="overflow:visible;"/>
			</clipPath>
			<path style="clip-path:url(#SVGID_8_);fill:none;stroke:#222628;stroke-width:0.3673;stroke-miterlimit:10;" d="M89.8,49.8
				c0-1.2,1-2.1,2.1-2.1c1.2,0,2.1,1,2.1,2.1c0,1.2-1,2.1-2.1,2.1C90.7,52,89.8,51,89.8,49.8z"/>
		</g>
		<path class="st15" d="M90.8,49.8c0-0.6,0.5-1.1,1.1-1.1c0.6,0,1.1,0.5,1.1,1.1c0,0.6-0.5,1.1-1.1,1.1
			C91.3,50.9,90.9,50.4,90.8,49.8"/>
		<path class="st18" d="M91.4,49.8c0-0.3,0.2-0.6,0.6-0.6c0.3,0,0.6,0.2,0.6,0.6c0,0.3-0.2,0.6-0.6,0.6S91.4,50.1,91.4,49.8"/>
	</g>
</g>
<ellipse class="st2" cx="83.3" cy="59.7" rx="2.9" ry="3"/>
<ellipse class="st2" cx="87.2" cy="55.5" rx="1.6" ry="1.7"/>
</svg>
