<?xml version="1.0" encoding="utf-8"?>
<!-- Generator: Adobe Illustrator 22.0.1, SVG Export Plug-In . SVG Version: 6.00 Build 0)  -->
<svg version="1.1" id="Capa_2" xmlns="http://www.w3.org/2000/svg" xmlns:xlink="http://www.w3.org/1999/xlink" x="0px" y="0px"
	 viewBox="0 0 114.6 114.6" style="enable-background:new 0 0 114.6 114.6;" xml:space="preserve">
<style type="text/css">
	.st0{fill:#FF5722;}
	.st1{fill:#464740;}
	.st2{fill:#FDFDFD;}
	.st3{fill:#FFFFFF;}
	.st4{fill:#4F4D49;}
	.st5{fill:#8CB7B7;}
	.st6{opacity:0.63;fill:#FFFFFF;}
	.st7{fill:#EEF2F2;}
	.st8{fill:#4F4C48;}
	.st9{fill:#5A5A52;}
	.st10{fill:#282828;}
	.st11{fill:#454540;}
	.st12{fill:#4F4C48;stroke:#676461;stroke-width:1.3148;stroke-miterlimit:10;}
	.st13{fill:#454544;}
	.st14{fill:none;stroke:#5A5A52;stroke-width:5;stroke-miterlimit:10;}
	.st15{fill:none;stroke:#5A5A52;stroke-width:2;stroke-miterlimit:10;}
	.st16{fill:#353738;}
	.st17{clip-path:url(#SVGID_2_);fill:#D4D5D5;}
	.st18{clip-path:url(#SVGID_4_);fill:none;stroke:#222628;stroke-width:0.3035;stroke-miterlimit:10;}
	.st19{fill:#222628;}
	.st20{fill:none;stroke:#4F4D49;stroke-width:3.4505;stroke-linecap:round;stroke-linejoin:round;stroke-miterlimit:10;}
	.st21{fill:none;stroke:#4F4C48;stroke-width:3.4505;stroke-linecap:round;stroke-linejoin:round;stroke-miterlimit:10;}
</style>
<g>
	<circle class="st0" cx="57.3" cy="57.3" r="54.3"/>
	<path class="st3" d="M55.5,67.4L39.2,83.6c-1.3,1.3-3.5,1.3-4.8,0l0,0c-1.3-1.3-1.3-3.5,0-4.8l16.2-16.2c1.3-1.3,3.5-1.3,4.8,0l0,0
		C56.8,63.9,56.8,66.1,55.5,67.4z"/>
	<g>
		<circle class="st4" cx="71.3" cy="47" r="28.5"/>
		<circle class="st7" cx="71.3" cy="47" r="21.9"/>
	</g>
	<path class="st4" d="M45.9,72.2c-2.7-2.7-7.1-2.7-9.8,0L20.1,88.1c2.8,3.7,6.1,7.1,9.7,9.9l16-16C48.6,79.3,48.6,74.9,45.9,72.2z"
		/>
	<ellipse class="st6" cx="79.5" cy="43.8" rx="3.4" ry="3.6"/>
</g>
</svg>
