<?xml version="1.0" encoding="utf-8"?>
<!-- Generator: Adobe Illustrator 22.0.1, SVG Export Plug-In . SVG Version: 6.00 Build 0)  -->
<svg version="1.1" id="Capa_2" xmlns="http://www.w3.org/2000/svg" xmlns:xlink="http://www.w3.org/1999/xlink" x="0px" y="0px"
	 viewBox="0 0 114.6 114.6" style="enable-background:new 0 0 114.6 114.6;" xml:space="preserve">
<style type="text/css">
	.st0{fill:#FF5722;}
	.st1{fill:#464740;}
	.st2{fill:#FDFDFD;}
	.st3{fill:#FFFFFF;}
	.st4{fill:#4F4D49;}
	.st5{fill:#8CB7B7;}
	.st6{opacity:0.63;fill:#FFFFFF;}
	.st7{fill:#EEF2F2;}
	.st8{fill:#454540;}
	.st9{fill:#4F4C48;stroke:#676461;stroke-width:1.3148;stroke-miterlimit:10;}
	.st10{fill:#4F4C48;}
	.st11{fill:#5A5A52;}
	.st12{fill:#454544;}
	.st13{fill:none;stroke:#5A5A52;stroke-width:5;stroke-miterlimit:10;}
	.st14{fill:none;stroke:#5A5A52;stroke-width:2;stroke-miterlimit:10;}
	.st15{fill:#353738;}
	.st16{clip-path:url(#SVGID_2_);fill:#D4D5D5;}
	.st17{clip-path:url(#SVGID_4_);fill:none;stroke:#222628;stroke-width:0.3035;stroke-miterlimit:10;}
	.st18{fill:#222628;}
	.st19{fill:none;stroke:#4F4D49;stroke-width:3.4505;stroke-linecap:round;stroke-linejoin:round;stroke-miterlimit:10;}
	.st20{fill:none;stroke:#4F4C48;stroke-width:3.4505;stroke-linecap:round;stroke-linejoin:round;stroke-miterlimit:10;}
	.st21{fill:#504F4B;}
	.st22{fill:none;stroke:#504F4B;stroke-width:8;stroke-linecap:round;stroke-linejoin:round;stroke-miterlimit:10;}
	.st23{clip-path:url(#SVGID_6_);fill:#EEF2F2;}
	.st24{opacity:0.28;clip-path:url(#SVGID_8_);fill:#FFFFFF;}
	.st25{clip-path:url(#SVGID_10_);fill:#D4D5D5;}
	.st26{clip-path:url(#SVGID_12_);fill:none;stroke:#222628;stroke-width:0.3673;stroke-miterlimit:10;}
	.st27{fill:#282828;}
</style>
<g>
	<circle class="st0" cx="57.3" cy="57.3" r="54.3"/>
	<g>
		<path class="st3" d="M100.2,56.7c0,0-19,26.3-42.5,26.3S15.3,56.7,15.3,56.7s19-26.3,42.5-26.3S100.2,56.7,100.2,56.7z"/>
		<circle class="st4" cx="57.8" cy="56.8" r="21"/>
		<circle class="st5" cx="57.8" cy="56.8" r="16.5"/>
		<circle class="st4" cx="57.8" cy="56.8" r="10"/>
		<ellipse class="st6" cx="61.4" cy="47.1" rx="3.4" ry="3.5"/>
		<ellipse class="st6" cx="65.9" cy="42.4" rx="1.8" ry="1.9"/>
	</g>
</g>
<path class="st3" d="M100.2,56.7c0,0-19,26.3-42.5,26.3S15.3,56.7,15.3,56.7s19-26.3,42.5-26.3S100.2,56.7,100.2,56.7z"/>
<g>
	<path class="st21" d="M100.6,56.9c-2.1,3.9-4.7,7.4-7.6,10.8c-2.9,3.3-6.1,6.4-9.7,9.2c-3.6,2.7-7.5,5.1-11.8,6.9
		c-2.2,0.9-4.4,1.5-6.7,2.1c-2.3,0.5-4.7,0.7-7.1,0.7c-2.4,0-4.8-0.3-7.1-0.7c-2.3-0.5-4.6-1.2-6.7-2.1c-4.3-1.8-8.2-4.1-11.8-6.9
		c-3.6-2.8-6.8-5.8-9.7-9.2c-2.9-3.4-5.5-6.9-7.6-10.8c-0.1-0.2,0-0.6,0.2-0.7c0.2-0.1,0.4-0.1,0.6,0.1l0,0
		c6.2,6,12.7,11.4,19.8,15.7c7,4.3,14.7,7.3,22.3,7.3c7.6,0,15.3-3,22.3-7.3c7-4.3,13.6-9.8,19.8-15.7l0,0c0.2-0.2,0.5-0.2,0.7,0
		C100.7,56.5,100.7,56.8,100.6,56.9z"/>
</g>
<line class="st22" x1="57.5" y1="85" x2="57.5" y2="94.5"/>
<line class="st22" x1="75.4" y1="79.9" x2="81.7" y2="89.5"/>
<line class="st22" x1="92" y1="70" x2="96.9" y2="75.1"/>
<line class="st22" x1="57.9" y1="85" x2="57.9" y2="94.5"/>
<line class="st22" x1="40" y1="79.9" x2="33.7" y2="89.5"/>
<line class="st22" x1="24" y1="69" x2="18.5" y2="75.1"/>
</svg>
