<?xml version="1.0" encoding="utf-8"?>
<!-- Generator: Adobe Illustrator 22.1.0, SVG Export Plug-In . SVG Version: 6.00 Build 0)  -->
<svg version="1.1" id="Capa_2_1_" xmlns="http://www.w3.org/2000/svg" xmlns:xlink="http://www.w3.org/1999/xlink" x="0px" y="0px"
	 viewBox="0 0 114.6 114.6" style="enable-background:new 0 0 114.6 114.6;" xml:space="preserve">
<style type="text/css">
	.st0{fill:#474193;}
	.st1{fill:#403491;}
	.st2{fill:#6C6C8C;}
	.st3{fill:#B4B7D3;}
	.st4{fill:#1F1D68;}
	.st5{fill:#E6E7EF;}
	.st6{fill:none;}
	.st7{font-family:'ArialMT';}
	.st8{font-size:12.1284px;}
</style>
<g>
	<circle class="st0" cx="57.3" cy="56.9" r="56.4"/>
</g>
<g>
	<path class="st1" d="M57.3,107.9C29.1,107.9,6.2,85,6.2,56.8s22.9-51,51.1-51"/>
</g>
<g>
	<g>
		<g>
			<ellipse class="st2" cx="56.3" cy="99.2" rx="2.6" ry="2.7"/>
			<g>
				<g>
					<path class="st3" d="M65,103.4c-3-0.9-4.6-4.2-4.6-4.2s3.2-1.7,6.2-0.8c3,0.9,4.6,4.2,4.6,4.2S68,104.3,65,103.4z"/>
				</g>
				<path class="st2" d="M60.4,99.2c0,0,3.2-1.7,6.2-0.8c3,0.9,4.6,4.2,4.6,4.2"/>
			</g>
			<g>
				<g>
					<path class="st3" d="M74.9,100.3c-3.1,0-5.7-2.6-5.7-2.6s2.5-2.6,5.6-2.6s5.7,2.6,5.7,2.6S78,100.3,74.9,100.3z"/>
				</g>
				<path class="st2" d="M69.3,97.8c0,0,2.5-2.6,5.6-2.6s5.7,2.6,5.7,2.6"/>
			</g>
			<g>
				<g>
					<path class="st3" d="M84.4,94.4c-3,0.8-6.1-1-6.1-1s1.7-3.2,4.7-4s6.1,1,6.1,1S87.4,93.5,84.4,94.4z"/>
				</g>
				<path class="st2" d="M78.3,93.4c0,0,1.7-3.2,4.7-4s6.1,1,6.1,1"/>
			</g>
			<g>
				<g>
					<path class="st3" d="M91.7,87.4c-2.8,1.3-6.2,0-6.2,0s1.2-3.4,4-4.7s6.2,0,6.2,0S94.5,86.1,91.7,87.4z"/>
				</g>
				<path class="st2" d="M85.5,87.4c0,0,1.2-3.4,4-4.7s6.2,0,6.2,0"/>
			</g>
			<g>
				<g>
					<path class="st3" d="M97.5,80c-2.7,1.6-6.2,0.6-6.2,0.6s0.9-3.5,3.5-5.1c2.7-1.6,6.2-0.6,6.2-0.6S100.1,78.4,97.5,80z"/>
				</g>
				<path class="st2" d="M91.3,80.6c0,0,0.9-3.5,3.5-5.1c2.7-1.6,6.2-0.6,6.2-0.6"/>
			</g>
			<g>
				<g>
					<path class="st3" d="M101.5,70.8c-2.1,2.3-5.7,2.5-5.7,2.5s-0.3-3.6,1.8-5.9c2.1-2.3,5.7-2.5,5.7-2.5S103.6,68.4,101.5,70.8z"
						/>
				</g>
				<path class="st2" d="M95.8,73.2c0,0-0.3-3.6,1.8-5.9c2.1-2.3,5.7-2.5,5.7-2.5"/>
			</g>
			<g>
				<g>
					<path class="st3" d="M101.7,61.7c-1.8,2.5-5.4,3.1-5.4,3.1s-0.6-3.6,1.2-6.1c1.8-2.5,5.4-3.1,5.4-3.1S103.5,59.2,101.7,61.7z"
						/>
				</g>
				<path class="st2" d="M96.3,64.8c0,0-0.6-3.6,1.2-6.1c1.8-2.5,5.4-3.1,5.4-3.1"/>
			</g>
			<g>
				<g>
					<path class="st3" d="M70.5,95.6c-2.5,1.8-6.1,1.2-6.1,1.2s0.5-3.6,3.1-5.4c2.5-1.8,6.1-1.2,6.1-1.2S73,93.7,70.5,95.6z"/>
				</g>
				<path class="st2" d="M64.4,96.7c0,0,0.5-3.6,3.1-5.4c2.5-1.8,6.1-1.2,6.1-1.2"/>
			</g>
			<g>
				<g>
					<path class="st3" d="M80.7,88.3c-1.2,2.9-4.5,4.3-4.5,4.3s-1.5-3.3-0.3-6.2c1.2-2.9,4.5-4.3,4.5-4.3S81.9,85.4,80.7,88.3z"/>
				</g>
				<path class="st2" d="M76.2,92.6c0,0-1.5-3.3-0.3-6.2c1.2-2.9,4.5-4.3,4.5-4.3"/>
			</g>
			<g>
				<g>
					<path class="st3" d="M87.3,78.7c0.2,3.1-2.2,5.8-2.2,5.8s-2.8-2.3-3-5.4s2.2-5.8,2.2-5.8S87.1,75.6,87.3,78.7z"/>
				</g>
				<path class="st2" d="M85.2,84.5c0,0-2.8-2.3-3-5.4s2.2-5.8,2.2-5.8"/>
			</g>
			<g>
				<g>
					<path class="st3" d="M80.4,31.6c-2.2-2.2-2.1-5.9-2.1-5.9s3.6,0,5.8,2.2s2.1,5.9,2.1,5.9S82.6,33.8,80.4,31.6z"/>
				</g>
				<path class="st2" d="M78.3,25.8c0,0,3.6,0,5.8,2.2s2.1,5.9,2.1,5.9"/>
			</g>
			<g>
				<g>
					<path class="st3" d="M88.1,34.5c-0.8-3,1-6.1,1-6.1s3.2,1.7,4,4.7s-1,6.1-1,6.1S88.9,37.5,88.1,34.5z"/>
				</g>
				<path class="st2" d="M89.1,28.4c0,0,3.2,1.7,4,4.7s-1,6.1-1,6.1"/>
			</g>
			<g>
				<g>
					<path class="st3" d="M93.6,41.6c0.4-3.1,3.4-5.2,3.4-5.2s2.2,2.9,1.8,5.9c-0.4,3.1-3.4,5.2-3.4,5.2S93.1,44.7,93.6,41.6z"/>
				</g>
				<path class="st2" d="M96.9,36.4c0,0,2.2,2.9,1.8,5.9c-0.4,3.1-3.4,5.2-3.4,5.2"/>
			</g>
			<g>
				<g>
					<path class="st3" d="M96.5,49.4c1.4-2.8,4.9-3.8,4.9-3.8s1.1,3.4-0.3,6.2s-4.9,3.8-4.9,3.8S95,52.2,96.5,49.4z"/>
				</g>
				<path class="st2" d="M101.4,45.6c0,0,1.1,3.4-0.3,6.2s-4.9,3.8-4.9,3.8"/>
			</g>
			<g>
				<g>
					<path class="st3" d="M83.9,41.5c-2.7-1.5-3.6-5-3.6-5s3.5-1,6.2,0.5s3.6,5,3.6,5S86.7,43,83.9,41.5z"/>
				</g>
				<path class="st2" d="M80.3,36.4c0,0,3.5-1,6.2,0.5s3.6,5,3.6,5"/>
			</g>
			<g>
				<g>
					<path class="st3" d="M86.4,48.4c-2.9-1.2-4.3-4.5-4.3-4.5s3.3-1.5,6.2-0.3c2.9,1.2,4.3,4.5,4.3,4.5S89.3,49.6,86.4,48.4z"/>
				</g>
				<path class="st2" d="M82.1,43.9c0,0,3.3-1.5,6.2-0.3c2.9,1.2,4.3,4.5,4.3,4.5"/>
			</g>
			<g>
				<g>
					<path class="st3" d="M88.6,56.1c-2.5-1.8-3.1-5.4-3.1-5.4s3.6-0.6,6.1,1.2s3.1,5.4,3.1,5.4S91.2,57.9,88.6,56.1z"/>
				</g>
				<path class="st2" d="M85.6,50.7c0,0,3.6-0.6,6.1,1.2s3.1,5.4,3.1,5.4"/>
			</g>
			<g>
				<g>
					<path class="st3" d="M86.1,72c-1.3-2.8,0.1-6.2,0.1-6.2s3.4,1.2,4.7,4.1S90.8,76,90.8,76S87.4,74.8,86.1,72z"/>
				</g>
				<path class="st2" d="M86.2,65.8c0,0,3.4,1.2,4.7,4.1S90.8,76,90.8,76"/>
			</g>
			<g>
				<g>
					<path class="st3" d="M88,63.8c-1.9-2.4-1.5-6-1.5-6s3.6,0.3,5.6,2.8c1.9,2.4,1.5,6,1.5,6S89.9,66.3,88,63.8z"/>
				</g>
				<path class="st2" d="M86.5,57.8c0,0,3.6,0.3,5.6,2.8c1.9,2.4,1.5,6,1.5,6"/>
			</g>
			<path class="st3" d="M56.3,96.5c-1.4,0-2.6,1.2-2.6,2.7s1.2,2.7,2.6,2.7"/>
			<g>
				<g>
					<path class="st3" d="M47.7,103.4c3-0.9,4.6-4.2,4.6-4.2s-3.2-1.7-6.2-0.8c-3,0.9-4.6,4.2-4.6,4.2S44.7,104.3,47.7,103.4z"/>
				</g>
				<path class="st2" d="M52.3,99.2c0,0-3.2-1.7-6.2-0.8c-3,0.9-4.6,4.2-4.6,4.2"/>
			</g>
			<g>
				<g>
					<path class="st3" d="M37.8,100.3c3.1,0,5.7-2.6,5.7-2.6s-2.5-2.6-5.6-2.6s-5.7,2.6-5.7,2.6S34.6,100.3,37.8,100.3z"/>
				</g>
				<path class="st2" d="M43.4,97.8c0,0-2.5-2.6-5.6-2.6s-5.7,2.6-5.7,2.6"/>
			</g>
			<g>
				<g>
					<path class="st3" d="M28.2,94.4c3,0.8,6.1-1,6.1-1s-1.7-3.2-4.7-4s-6.1,1-6.1,1S25.2,93.5,28.2,94.4z"/>
				</g>
				<path class="st2" d="M34.4,93.4c0,0-1.7-3.2-4.7-4s-6.1,1-6.1,1"/>
			</g>
			<g>
				<g>
					<path class="st3" d="M21,87.4c2.8,1.3,6.2,0,6.2,0s-1.2-3.4-4-4.7s-6.2,0-6.2,0S18.1,86.1,21,87.4z"/>
				</g>
				<path class="st2" d="M27.2,87.4c0,0-1.2-3.4-4-4.7s-6.2,0-6.2,0"/>
			</g>
			<g>
				<g>
					<path class="st3" d="M15.2,80c2.7,1.6,6.2,0.6,6.2,0.6s-0.9-3.5-3.5-5.1c-2.7-1.6-6.2-0.6-6.2-0.6S12.5,78.4,15.2,80z"/>
				</g>
				<path class="st2" d="M21.4,80.6c0,0-0.9-3.5-3.5-5.1c-2.7-1.6-6.2-0.6-6.2-0.6"/>
			</g>
			<g>
				<g>
					<path class="st3" d="M11.1,70.8c2.1,2.3,5.7,2.5,5.7,2.5s0.3-3.6-1.8-5.9s-5.7-2.5-5.7-2.5S9.1,68.4,11.1,70.8z"/>
				</g>
				<path class="st2" d="M16.8,73.2c0,0,0.3-3.6-1.8-5.9s-5.7-2.5-5.7-2.5"/>
			</g>
			<g>
				<g>
					<path class="st3" d="M11,61.7c1.8,2.5,5.4,3.1,5.4,3.1s0.6-3.6-1.2-6.1s-5.4-3.1-5.4-3.1S9.2,59.2,11,61.7z"/>
				</g>
				<path class="st2" d="M16.4,64.8c0,0,0.6-3.6-1.2-6.1s-5.4-3.1-5.4-3.1"/>
			</g>
			<g>
				<g>
					<path class="st3" d="M42.2,95.6c2.5,1.8,6.1,1.2,6.1,1.2s-0.5-3.6-3.1-5.4c-2.5-1.8-6.1-1.2-6.1-1.2S39.7,93.7,42.2,95.6z"/>
				</g>
				<path class="st2" d="M48.3,96.7c0,0-0.5-3.6-3.1-5.4c-2.5-1.8-6.1-1.2-6.1-1.2"/>
			</g>
			<g>
				<g>
					<path class="st3" d="M32,88.3c1.2,2.9,4.5,4.3,4.5,4.3s1.5-3.3,0.3-6.2c-1.2-2.9-4.5-4.3-4.5-4.3S30.8,85.4,32,88.3z"/>
				</g>
				<path class="st2" d="M36.5,92.6c0,0,1.5-3.3,0.3-6.2c-1.2-2.9-4.5-4.3-4.5-4.3"/>
			</g>
			<g>
				<g>
					<path class="st3" d="M25.3,78.7c-0.2,3.1,2.2,5.8,2.2,5.8s2.8-2.3,3-5.4s-2.2-5.8-2.2-5.8S25.6,75.6,25.3,78.7z"/>
				</g>
				<path class="st2" d="M27.5,84.5c0,0,2.8-2.3,3-5.4s-2.2-5.8-2.2-5.8"/>
			</g>
			<g>
				<g>
					<path class="st3" d="M32.3,31.6c2.2-2.2,2.1-5.9,2.1-5.9s-3.6,0-5.8,2.2s-2.1,5.9-2.1,5.9S30.1,33.8,32.3,31.6z"/>
				</g>
				<path class="st2" d="M34.4,25.8c0,0-3.6,0-5.8,2.2s-2.1,5.9-2.1,5.9"/>
			</g>
			<g>
				<g>
					<path class="st3" d="M24.6,34.5c0.8-3-1-6.1-1-6.1s-3.2,1.7-4,4.7s1,6.1,1,6.1S23.7,37.5,24.6,34.5z"/>
				</g>
				<path class="st2" d="M23.6,28.4c0,0-3.2,1.7-4,4.7s1,6.1,1,6.1"/>
			</g>
			<g>
				<g>
					<path class="st3" d="M19.1,41.6c-0.4-3.1-3.4-5.2-3.4-5.2s-2.2,2.9-1.8,5.9c0.4,3.1,3.4,5.2,3.4,5.2S19.6,44.7,19.1,41.6z"/>
				</g>
				<path class="st2" d="M15.8,36.4c0,0-2.2,2.9-1.8,5.9c0.4,3.1,3.4,5.2,3.4,5.2"/>
			</g>
			<g>
				<g>
					<path class="st3" d="M16.2,49.4c-1.4-2.8-4.9-3.8-4.9-3.8s-1.1,3.4,0.3,6.2s4.9,3.8,4.9,3.8S17.7,52.2,16.2,49.4z"/>
				</g>
				<path class="st2" d="M11.3,45.6c0,0-1.1,3.4,0.3,6.2s4.9,3.8,4.9,3.8"/>
			</g>
			<g>
				<g>
					<path class="st3" d="M28.7,41.5c2.7-1.5,3.6-5,3.6-5s-3.5-1-6.2,0.5s-3.6,5-3.6,5S26,43,28.7,41.5z"/>
				</g>
				<path class="st2" d="M32.3,36.4c0,0-3.5-1-6.2,0.5s-3.6,5-3.6,5"/>
			</g>
			<g>
				<g>
					<path class="st3" d="M26.3,48.4c2.9-1.2,4.3-4.5,4.3-4.5s-3.3-1.5-6.2-0.3s-4.3,4.5-4.3,4.5S23.4,49.6,26.3,48.4z"/>
				</g>
				<path class="st2" d="M30.5,43.9c0,0-3.3-1.5-6.2-0.3S20,48.1,20,48.1"/>
			</g>
			<g>
				<g>
					<path class="st3" d="M24,56.1c2.5-1.8,3.1-5.4,3.1-5.4s-3.6-0.6-6.1,1.2s-3.1,5.4-3.1,5.4S21.5,57.9,24,56.1z"/>
				</g>
				<path class="st2" d="M27.1,50.7c0,0-3.6-0.6-6.1,1.2s-3.1,5.4-3.1,5.4"/>
			</g>
			<g>
				<g>
					<path class="st3" d="M26.6,72c1.3-2.8-0.1-6.2-0.1-6.2s-3.4,1.2-4.7,4.1s0.1,6.2,0.1,6.2S25.3,74.8,26.6,72z"/>
				</g>
				<path class="st2" d="M26.5,65.8c0,0-3.4,1.2-4.7,4.1s0.1,6.2,0.1,6.2"/>
			</g>
			<g>
				<g>
					<path class="st3" d="M24.7,63.8c1.9-2.4,1.5-6,1.5-6s-3.6,0.3-5.6,2.8c-1.9,2.4-1.5,6-1.5,6S22.8,66.3,24.7,63.8z"/>
				</g>
				<path class="st2" d="M26.2,57.8c0,0-3.6,0.3-5.6,2.8c-1.9,2.4-1.5,6-1.5,6"/>
			</g>
		</g>
	</g>
</g>
<g>
	<path class="st4" d="M85.3,82.9L84.9,83c-2.9,0.5-5.7-1.3-6.1-4l-8.4-52.2l11-1.8l8.4,52.2C90.3,79.9,88.2,82.4,85.3,82.9z"/>
	<path class="st5" d="M86.4,82.7c-6,1-8.1-11.1-8.1-11.1l-7.5-46.5l-46.1,7.5l7.7,47.9c1,5.9,6.5,9.9,12.4,9l35.4-5.7L86.4,82.7z"/>
	
		<rect x="34.1" y="52.2" transform="matrix(0.9872 -0.1596 0.1596 0.9872 -8.9369 7.5212)" class="st0" width="16.5" height="14.4"/>
	
		<rect x="51.1" y="49.2" transform="matrix(0.9872 -0.1596 0.1596 0.9872 -7.1958 10.2802)" class="st0" width="18.6" height="1.5"/>
	<rect x="51.5" y="52" transform="matrix(0.9872 -0.1596 0.1596 0.9872 -7.6394 10.3784)" class="st0" width="18.6" height="1.5"/>
	<rect x="52" y="54.9" transform="matrix(0.9872 -0.1596 0.1596 0.9872 -8.0948 10.496)" class="st0" width="18.6" height="1.5"/>
	<rect x="52.5" y="58.1" transform="matrix(0.9872 -0.1596 0.1596 0.9872 -8.6237 10.306)" class="st0" width="14.7" height="1.5"/>
	<rect x="36" y="70.5" transform="matrix(0.9872 -0.1596 0.1596 0.9872 -11.0923 7.0991)" class="st0" width="5.3" height="4.2"/>
	<rect x="44.2" y="69.2" transform="matrix(0.9872 -0.1596 0.1596 0.9872 -10.7777 8.3912)" class="st0" width="5.3" height="4.2"/>
	<rect x="52.3" y="67.9" transform="matrix(0.9872 -0.1596 0.1596 0.9872 -10.4669 9.6677)" class="st0" width="5.3" height="4.2"/>
	
		<rect x="60.4" y="66.6" transform="matrix(0.9872 -0.1596 0.1596 0.9872 -10.1562 10.9442)" class="st0" width="5.3" height="4.2"/>
	<rect x="68.5" y="65.3" transform="matrix(0.9872 -0.1596 0.1596 0.9872 -9.8454 12.2207)" class="st0" width="5.3" height="4.2"/>
	
		<rect x="33.3" y="38.8" transform="matrix(0.9872 -0.1596 0.1596 0.9872 -7.7349 8.8945)" class="st6" width="36.4" height="27.6"/>
	<text transform="matrix(0.9872 -0.1596 0.1596 0.9872 32.7201 50.2099)" class="st0 st7 st8">news</text>
</g>
</svg>
