<?xml version="1.0" encoding="utf-8"?>
<!-- Generator: Adobe Illustrator 22.1.0, SVG Export Plug-In . SVG Version: 6.00 Build 0)  -->
<svg version="1.1" id="Capa_2_1_" xmlns="http://www.w3.org/2000/svg" xmlns:xlink="http://www.w3.org/1999/xlink" x="0px" y="0px"
	 viewBox="0 0 114.6 114.6" style="enable-background:new 0 0 114.6 114.6;" xml:space="preserve">
<style type="text/css">
	.st0{fill:#A07F6D;}
	.st1{fill:#997765;}
	.st2{fill:#BFAC91;}
	.st3{fill:#B29777;}
	.st4{clip-path:url(#SVGID_2_);}
	.st5{fill:#F7E6D7;}
	.st6{fill:#936C5C;}
	.st7{opacity:0.1;fill:#896918;enable-background:new    ;}
	.st8{fill:#634337;}
</style>
<g>
	<circle class="st0" cx="57.3" cy="56.9" r="56.4"/>
</g>
<path class="st1" d="M57.3,108.1C29,108.1,6,85.2,6,56.9S29,5.6,57.3,5.6"/>
<g>
	<g>
		<g>
			<ellipse class="st2" cx="56.3" cy="99.2" rx="2.6" ry="2.7"/>
			<g>
				<g>
					<path class="st3" d="M65,103.4c-3-0.9-4.6-4.2-4.6-4.2s3.2-1.7,6.2-0.8c3,0.9,4.6,4.2,4.6,4.2S68,104.3,65,103.4z"/>
				</g>
				<path class="st2" d="M60.4,99.2c0,0,3.2-1.7,6.2-0.8c3,0.9,4.6,4.2,4.6,4.2"/>
			</g>
			<g>
				<g>
					<path class="st3" d="M74.9,100.3c-3.1,0-5.7-2.6-5.7-2.6s2.5-2.6,5.6-2.6s5.7,2.6,5.7,2.6S78,100.3,74.9,100.3z"/>
				</g>
				<path class="st2" d="M69.3,97.8c0,0,2.5-2.6,5.6-2.6s5.7,2.6,5.7,2.6"/>
			</g>
			<g>
				<g>
					<path class="st3" d="M84.4,94.4c-3,0.8-6.1-1-6.1-1s1.7-3.2,4.7-4s6.1,1,6.1,1S87.4,93.5,84.4,94.4z"/>
				</g>
				<path class="st2" d="M78.3,93.4c0,0,1.7-3.2,4.7-4s6.1,1,6.1,1"/>
			</g>
			<g>
				<g>
					<path class="st3" d="M91.7,87.4c-2.8,1.3-6.2,0-6.2,0s1.2-3.4,4-4.7s6.2,0,6.2,0S94.5,86.1,91.7,87.4z"/>
				</g>
				<path class="st2" d="M85.5,87.4c0,0,1.2-3.4,4-4.7s6.2,0,6.2,0"/>
			</g>
			<g>
				<g>
					<path class="st3" d="M97.5,80c-2.7,1.6-6.2,0.6-6.2,0.6s0.9-3.5,3.5-5.1c2.7-1.6,6.2-0.6,6.2-0.6S100.1,78.4,97.5,80z"/>
				</g>
				<path class="st2" d="M91.3,80.6c0,0,0.9-3.5,3.5-5.1c2.7-1.6,6.2-0.6,6.2-0.6"/>
			</g>
			<g>
				<g>
					<path class="st3" d="M101.5,70.8c-2.1,2.3-5.7,2.5-5.7,2.5s-0.3-3.6,1.8-5.9c2.1-2.3,5.7-2.5,5.7-2.5S103.6,68.4,101.5,70.8z"
						/>
				</g>
				<path class="st2" d="M95.8,73.2c0,0-0.3-3.6,1.8-5.9c2.1-2.3,5.7-2.5,5.7-2.5"/>
			</g>
			<g>
				<g>
					<path class="st3" d="M101.7,61.7c-1.8,2.5-5.4,3.1-5.4,3.1s-0.6-3.6,1.2-6.1c1.8-2.5,5.4-3.1,5.4-3.1S103.5,59.2,101.7,61.7z"
						/>
				</g>
				<path class="st2" d="M96.3,64.8c0,0-0.6-3.6,1.2-6.1c1.8-2.5,5.4-3.1,5.4-3.1"/>
			</g>
			<g>
				<g>
					<path class="st3" d="M70.5,95.6c-2.5,1.8-6.1,1.2-6.1,1.2s0.5-3.6,3.1-5.4c2.5-1.8,6.1-1.2,6.1-1.2S73,93.7,70.5,95.6z"/>
				</g>
				<path class="st2" d="M64.4,96.7c0,0,0.5-3.6,3.1-5.4c2.5-1.8,6.1-1.2,6.1-1.2"/>
			</g>
			<g>
				<g>
					<path class="st3" d="M80.7,88.3c-1.2,2.9-4.5,4.3-4.5,4.3s-1.5-3.3-0.3-6.2c1.2-2.9,4.5-4.3,4.5-4.3S81.9,85.4,80.7,88.3z"/>
				</g>
				<path class="st2" d="M76.2,92.6c0,0-1.5-3.3-0.3-6.2c1.2-2.9,4.5-4.3,4.5-4.3"/>
			</g>
			<g>
				<g>
					<path class="st3" d="M87.3,78.7c0.2,3.1-2.2,5.8-2.2,5.8s-2.8-2.3-3-5.4s2.2-5.8,2.2-5.8S87.1,75.6,87.3,78.7z"/>
				</g>
				<path class="st2" d="M85.2,84.5c0,0-2.8-2.3-3-5.4s2.2-5.8,2.2-5.8"/>
			</g>
			<g>
				<g>
					<path class="st3" d="M80.4,31.6c-2.2-2.2-2.1-5.9-2.1-5.9s3.6,0,5.8,2.2s2.1,5.9,2.1,5.9S82.6,33.8,80.4,31.6z"/>
				</g>
				<path class="st2" d="M78.3,25.8c0,0,3.6,0,5.8,2.2s2.1,5.9,2.1,5.9"/>
			</g>
			<g>
				<g>
					<path class="st3" d="M88.1,34.5c-0.8-3,1-6.1,1-6.1s3.2,1.7,4,4.7s-1,6.1-1,6.1S88.9,37.5,88.1,34.5z"/>
				</g>
				<path class="st2" d="M89.1,28.4c0,0,3.2,1.7,4,4.7s-1,6.1-1,6.1"/>
			</g>
			<g>
				<g>
					<path class="st3" d="M93.6,41.6c0.4-3.1,3.4-5.2,3.4-5.2s2.2,2.9,1.8,5.9c-0.4,3.1-3.4,5.2-3.4,5.2S93.1,44.7,93.6,41.6z"/>
				</g>
				<path class="st2" d="M96.9,36.4c0,0,2.2,2.9,1.8,5.9c-0.4,3.1-3.4,5.2-3.4,5.2"/>
			</g>
			<g>
				<g>
					<path class="st3" d="M96.5,49.4c1.4-2.8,4.9-3.8,4.9-3.8s1.1,3.4-0.3,6.2s-4.9,3.8-4.9,3.8S95,52.2,96.5,49.4z"/>
				</g>
				<path class="st2" d="M101.4,45.6c0,0,1.1,3.4-0.3,6.2s-4.9,3.8-4.9,3.8"/>
			</g>
			<g>
				<g>
					<path class="st3" d="M83.9,41.5c-2.7-1.5-3.6-5-3.6-5s3.5-1,6.2,0.5s3.6,5,3.6,5S86.7,43,83.9,41.5z"/>
				</g>
				<path class="st2" d="M80.3,36.4c0,0,3.5-1,6.2,0.5s3.6,5,3.6,5"/>
			</g>
			<g>
				<g>
					<path class="st3" d="M86.4,48.4c-2.9-1.2-4.3-4.5-4.3-4.5s3.3-1.5,6.2-0.3c2.9,1.2,4.3,4.5,4.3,4.5S89.3,49.6,86.4,48.4z"/>
				</g>
				<path class="st2" d="M82.1,43.9c0,0,3.3-1.5,6.2-0.3c2.9,1.2,4.3,4.5,4.3,4.5"/>
			</g>
			<g>
				<g>
					<path class="st3" d="M88.6,56.1c-2.5-1.8-3.1-5.4-3.1-5.4s3.6-0.6,6.1,1.2s3.1,5.4,3.1,5.4S91.2,57.9,88.6,56.1z"/>
				</g>
				<path class="st2" d="M85.6,50.7c0,0,3.6-0.6,6.1,1.2s3.1,5.4,3.1,5.4"/>
			</g>
			<g>
				<g>
					<path class="st3" d="M86.1,72c-1.3-2.8,0.1-6.2,0.1-6.2s3.4,1.2,4.7,4.1S90.8,76,90.8,76S87.4,74.8,86.1,72z"/>
				</g>
				<path class="st2" d="M86.2,65.8c0,0,3.4,1.2,4.7,4.1S90.8,76,90.8,76"/>
			</g>
			<g>
				<g>
					<path class="st3" d="M88,63.8c-1.9-2.4-1.5-6-1.5-6s3.6,0.3,5.6,2.8c1.9,2.4,1.5,6,1.5,6S89.9,66.3,88,63.8z"/>
				</g>
				<path class="st2" d="M86.5,57.8c0,0,3.6,0.3,5.6,2.8c1.9,2.4,1.5,6,1.5,6"/>
			</g>
			<path class="st3" d="M56.3,96.5c-1.4,0-2.6,1.2-2.6,2.7s1.2,2.7,2.6,2.7"/>
			<g>
				<g>
					<path class="st3" d="M47.7,103.4c3-0.9,4.6-4.2,4.6-4.2s-3.2-1.7-6.2-0.8c-3,0.9-4.6,4.2-4.6,4.2S44.7,104.3,47.7,103.4z"/>
				</g>
				<path class="st2" d="M52.3,99.2c0,0-3.2-1.7-6.2-0.8c-3,0.9-4.6,4.2-4.6,4.2"/>
			</g>
			<g>
				<g>
					<path class="st3" d="M37.8,100.3c3.1,0,5.7-2.6,5.7-2.6s-2.5-2.6-5.6-2.6s-5.7,2.6-5.7,2.6S34.6,100.3,37.8,100.3z"/>
				</g>
				<path class="st2" d="M43.4,97.8c0,0-2.5-2.6-5.6-2.6s-5.7,2.6-5.7,2.6"/>
			</g>
			<g>
				<g>
					<path class="st3" d="M28.2,94.4c3,0.8,6.1-1,6.1-1s-1.7-3.2-4.7-4s-6.1,1-6.1,1S25.2,93.5,28.2,94.4z"/>
				</g>
				<path class="st2" d="M34.4,93.4c0,0-1.7-3.2-4.7-4s-6.1,1-6.1,1"/>
			</g>
			<g>
				<g>
					<path class="st3" d="M21,87.4c2.8,1.3,6.2,0,6.2,0s-1.2-3.4-4-4.7s-6.2,0-6.2,0S18.1,86.1,21,87.4z"/>
				</g>
				<path class="st2" d="M27.2,87.4c0,0-1.2-3.4-4-4.7s-6.2,0-6.2,0"/>
			</g>
			<g>
				<g>
					<path class="st3" d="M15.2,80c2.7,1.6,6.2,0.6,6.2,0.6s-0.9-3.5-3.5-5.1c-2.7-1.6-6.2-0.6-6.2-0.6S12.5,78.4,15.2,80z"/>
				</g>
				<path class="st2" d="M21.4,80.6c0,0-0.9-3.5-3.5-5.1c-2.7-1.6-6.2-0.6-6.2-0.6"/>
			</g>
			<g>
				<g>
					<path class="st3" d="M11.1,70.8c2.1,2.3,5.7,2.5,5.7,2.5s0.3-3.6-1.8-5.9s-5.7-2.5-5.7-2.5S9.1,68.4,11.1,70.8z"/>
				</g>
				<path class="st2" d="M16.8,73.2c0,0,0.3-3.6-1.8-5.9s-5.7-2.5-5.7-2.5"/>
			</g>
			<g>
				<g>
					<path class="st3" d="M11,61.7c1.8,2.5,5.4,3.1,5.4,3.1s0.6-3.6-1.2-6.1s-5.4-3.1-5.4-3.1S9.2,59.2,11,61.7z"/>
				</g>
				<path class="st2" d="M16.4,64.8c0,0,0.6-3.6-1.2-6.1s-5.4-3.1-5.4-3.1"/>
			</g>
			<g>
				<g>
					<path class="st3" d="M42.2,95.6c2.5,1.8,6.1,1.2,6.1,1.2s-0.5-3.6-3.1-5.4c-2.5-1.8-6.1-1.2-6.1-1.2S39.7,93.7,42.2,95.6z"/>
				</g>
				<path class="st2" d="M48.3,96.7c0,0-0.5-3.6-3.1-5.4c-2.5-1.8-6.1-1.2-6.1-1.2"/>
			</g>
			<g>
				<g>
					<path class="st3" d="M32,88.3c1.2,2.9,4.5,4.3,4.5,4.3s1.5-3.3,0.3-6.2c-1.2-2.9-4.5-4.3-4.5-4.3S30.8,85.4,32,88.3z"/>
				</g>
				<path class="st2" d="M36.5,92.6c0,0,1.5-3.3,0.3-6.2c-1.2-2.9-4.5-4.3-4.5-4.3"/>
			</g>
			<g>
				<g>
					<path class="st3" d="M25.3,78.7c-0.2,3.1,2.2,5.8,2.2,5.8s2.8-2.3,3-5.4s-2.2-5.8-2.2-5.8S25.6,75.6,25.3,78.7z"/>
				</g>
				<path class="st2" d="M27.5,84.5c0,0,2.8-2.3,3-5.4s-2.2-5.8-2.2-5.8"/>
			</g>
			<g>
				<g>
					<path class="st3" d="M32.3,31.6c2.2-2.2,2.1-5.9,2.1-5.9s-3.6,0-5.8,2.2s-2.1,5.9-2.1,5.9S30.1,33.8,32.3,31.6z"/>
				</g>
				<path class="st2" d="M34.4,25.8c0,0-3.6,0-5.8,2.2s-2.1,5.9-2.1,5.9"/>
			</g>
			<g>
				<g>
					<path class="st3" d="M24.6,34.5c0.8-3-1-6.1-1-6.1s-3.2,1.7-4,4.7s1,6.1,1,6.1S23.7,37.5,24.6,34.5z"/>
				</g>
				<path class="st2" d="M23.6,28.4c0,0-3.2,1.7-4,4.7s1,6.1,1,6.1"/>
			</g>
			<g>
				<g>
					<path class="st3" d="M19.1,41.6c-0.4-3.1-3.4-5.2-3.4-5.2s-2.2,2.9-1.8,5.9c0.4,3.1,3.4,5.2,3.4,5.2S19.6,44.7,19.1,41.6z"/>
				</g>
				<path class="st2" d="M15.8,36.4c0,0-2.2,2.9-1.8,5.9c0.4,3.1,3.4,5.2,3.4,5.2"/>
			</g>
			<g>
				<g>
					<path class="st3" d="M16.2,49.4c-1.4-2.8-4.9-3.8-4.9-3.8s-1.1,3.4,0.3,6.2s4.9,3.8,4.9,3.8S17.7,52.2,16.2,49.4z"/>
				</g>
				<path class="st2" d="M11.3,45.6c0,0-1.1,3.4,0.3,6.2s4.9,3.8,4.9,3.8"/>
			</g>
			<g>
				<g>
					<path class="st3" d="M28.7,41.5c2.7-1.5,3.6-5,3.6-5s-3.5-1-6.2,0.5s-3.6,5-3.6,5S26,43,28.7,41.5z"/>
				</g>
				<path class="st2" d="M32.3,36.4c0,0-3.5-1-6.2,0.5s-3.6,5-3.6,5"/>
			</g>
			<g>
				<g>
					<path class="st3" d="M26.3,48.4c2.9-1.2,4.3-4.5,4.3-4.5s-3.3-1.5-6.2-0.3s-4.3,4.5-4.3,4.5S23.4,49.6,26.3,48.4z"/>
				</g>
				<path class="st2" d="M30.5,43.9c0,0-3.3-1.5-6.2-0.3S20,48.1,20,48.1"/>
			</g>
			<g>
				<g>
					<path class="st3" d="M24,56.1c2.5-1.8,3.1-5.4,3.1-5.4s-3.6-0.6-6.1,1.2s-3.1,5.4-3.1,5.4S21.5,57.9,24,56.1z"/>
				</g>
				<path class="st2" d="M27.1,50.7c0,0-3.6-0.6-6.1,1.2s-3.1,5.4-3.1,5.4"/>
			</g>
			<g>
				<g>
					<path class="st3" d="M26.6,72c1.3-2.8-0.1-6.2-0.1-6.2s-3.4,1.2-4.7,4.1s0.1,6.2,0.1,6.2S25.3,74.8,26.6,72z"/>
				</g>
				<path class="st2" d="M26.5,65.8c0,0-3.4,1.2-4.7,4.1s0.1,6.2,0.1,6.2"/>
			</g>
			<g>
				<g>
					<path class="st3" d="M24.7,63.8c1.9-2.4,1.5-6,1.5-6s-3.6,0.3-5.6,2.8c-1.9,2.4-1.5,6-1.5,6S22.8,66.3,24.7,63.8z"/>
				</g>
				<path class="st2" d="M26.2,57.8c0,0-3.6,0.3-5.6,2.8c-1.9,2.4-1.5,6-1.5,6"/>
			</g>
		</g>
	</g>
</g>
<g>
	<g>
		<g>
			<g>
				<g>
					<g>
						<g>
							<defs>
								<path id="SVGID_1_" d="M57.3-5.6c-32,0-57.9,25.9-57.9,57.9s25.9,57.9,57.9,57.9s57.9-25.9,57.9-57.9 M78.4,101.4
									c-9.9,0-18-8-18-18s8-18,18-18s18,8,18,18S88.3,101.4,78.4,101.4z"/>
							</defs>
							<clipPath id="SVGID_2_">
								<use xlink:href="#SVGID_1_"  style="overflow:visible;"/>
							</clipPath>
							<g class="st4">
								<g>
									<path class="st5" d="M50.3,41.3c1.4-0.9,3.4-7.9,3.4-8.6H61c0,0.6,2,7.6,3.4,8.6l-7,7.9L50.3,41.3z"/>
									<path class="st6" d="M64.3,41l9.9,2.1c1.7,0.5-2.5,21.4-2.5,21.4l-2.5,6.6l-2,12.6c0,0,3.7,7.1,3.5,14.8H45.5
										C45.3,91.6,48,83.9,48,83.9l-1.7-12l-2.9-6.6c0,0-4.4-21.6-2.6-22.2L51,40.9l6.8,4.5L64.3,41"/>
									<path class="st6" d="M40.8,43.4l0.9,12.5L36.4,75l-1.7,28.6c0,0-0.1,1.9-1.7,1.6l-1.6-0.3v-1.3c0,0,0.1-30.7,0-31.1
										s9.3-29.3,9.3-29.3"/>
									<path class="st5" d="M47.8,24.9c0.4,2,1.3,5.5,2.4,7.6c0.3,0.6,4,4.9,4.9,5.5c0.9,0.7,4.6,0.3,4.6,0.3s3.9-3.9,4.7-6.2
										c0.8-2.3,2.9-10.5,2.9-10.5L67,19.4c-0.2-1.2-1.1-2.2-2.3-2.4l-5.3-0.8c-1.7-0.3-3.5-0.2-5.2,0.1l-4.6,0.9
										c-1.3,0.3-2.3,1.5-2.3,2.8C47.4,21.6,47.6,23.6,47.8,24.9z"/>
									<path class="st6" d="M74.3,43.4l-1,13.3L79,75l1.7,28.6c0,0,0.1,1.9,1.7,1.6l1.6-0.3v-1.3c0,0-0.1-30.7,0-31.1
										C84.2,72.1,74.3,43.4,74.3,43.4"/>
									<path class="st7" d="M71.8,64.8l-2.9,2.8L65.2,68l1,2.5l-2.4,14l-2.5,4.7l0.8,9.4h8.8c-0.1-8.7-3.5-14.8-3.5-14.8L69.3,71
										L71.8,64.8z"/>
								</g>
							</g>
						</g>
					</g>
				</g>
			</g>
		</g>
		<circle class="st5" cx="78.4" cy="83.4" r="15.4"/>
		<g>
			<polygon class="st8" points="73.5,94 67.1,87.6 69.9,84.8 73.5,88.4 87,74.8 89.9,77.6 			"/>
		</g>
	</g>
	<path class="st8" d="M47.4,22.2c-0.1,0.3-1.6-3.8,0-5.3c0,0-1-6,0-8.2c0,0,1.4,1.6,1.8,1.2l0.5-3.8L53,7.7l8.8,1l2.5,2.4l1.5,0.1
		l3,5l-2,6.9L66,19l-1,0.2c0,0-0.6-1.4-1.2-1.9c-0.6-0.4-2.5-0.2-4.4,0.7c-1.9,0.9-5.2,1.4-7,0.2C50.6,17,48.4,17.6,47.4,22.2"/>
</g>
</svg>
